<svg xmlns="http://www.w3.org/2000/svg" viewBox="0 0 256 256"><path class="fill-primary" d="M224 32H32A32 32 0 000 64v160a32 32 0 0032 32h192a32 32 0 0032-32V64a32 32 0 00-32-32zm10.67 192A10.67 10.67 0 01224 234.67H32A10.67 10.67 0 0121.33 224V64A10.67 10.67 0 0132 53.33h192A10.67 10.67 0 01234.67 64z"/><circle class="fill-secondary" cx="64" cy="160" r="21.33"/><circle class="fill-secondary" cx="128" cy="128" r="21.33"/><circle class="fill-secondary" cx="192" cy="96" r="21.33"/><path class="fill-secondary" d="M64 160l64-32 64-32" stroke-width="8" stroke-linecap="round" fill="none" stroke="currentColor" opacity="0.3"/><rect class="fill-primary" x="53.33" y="181.33" width="21.33" height="32" rx="4"/><rect class="fill-primary" x="117.33" y="149.33" width="21.33" height="64" rx="4"/><rect class="fill-primary" x="181.33" y="117.33" width="21.33" height="96" rx="4"/></svg>
