<svg xmlns="http://www.w3.org/2000/svg" viewBox="0 0 256 256"><path class="fill-primary" d="M128 0a53.33 53.33 0 00-53.33 53.33v74.67A53.33 53.33 0 00128 181.33 53.33 53.33 0 00181.33 128V53.33A53.33 53.33 0 00128 0z"/><path class="fill-secondary" d="M213.33 106.67a10.67 10.67 0 00-10.66 10.66V128a74.67 74.67 0 01-149.34 0v-10.67a10.67 10.67 0 10-21.33 0V128a96 96 0 0085.33 95.36V245.33H85.33a10.67 10.67 0 000 21.34h85.34a10.67 10.67 0 100-21.34h-32v-21.97A96 96 0 00224 128v-10.67a10.67 10.67 0 00-10.67-10.66z"/><ellipse class="fill-secondary" cx="128" cy="64" rx="21.33" ry="32"/></svg>

