<svg xmlns="http://www.w3.org/2000/svg" viewBox="0 0 192 256"><path class="fill-secondary" d="M96 0a53.33 53.33 0 00-53.33 53.33V96h106.66V53.33A53.33 53.33 0 0096 0zm32 85.33H64V53.33a32 32 0 0164 0z"/><path class="fill-primary" d="M170.67 96H21.33A21.36 21.36 0 000 117.33v117.34A21.36 21.36 0 0021.33 256h149.34a21.36 21.36 0 0021.33-21.33V117.33A21.36 21.36 0 00170.67 96zM96 213.33a10.67 10.67 0 01-10.67-10.66v-32a21.33 21.33 0 1121.34 0v32A10.67 10.67 0 0196 213.33z"/><circle class="fill-secondary" cx="96" cy="160" r="8"/></svg>
